<?xml version="1.0" encoding="utf-8"?>
<!-- Generator: Adobe Illustrator 15.1.0, SVG Export Plug-In . SVG Version: 6.00 Build 0)  -->
<!DOCTYPE svg PUBLIC "-//W3C//DTD SVG 1.1//EN" "http://www.w3.org/Graphics/SVG/1.1/DTD/svg11.dtd">
<svg version="1.1" id="Layer_1" xmlns="http://www.w3.org/2000/svg" xmlns:xlink="http://www.w3.org/1999/xlink" x="0px" y="0px"
	 width="360px" height="360px" viewBox="0 0 360 360" enable-background="new 0 0 360 360" xml:space="preserve">
<polygon fill="#FFFFFF" stroke="#000000" stroke-miterlimit="10" points="123.982,5.001 15.982,192.062 231.982,192.062 123.982,5 
	"/>
<polygon fill="#ED1C24" stroke="#000000" stroke-miterlimit="10" points="123.982,5.001 69.982,98.531 177.982,98.531 123.982,5 "/>
<polygon fill="#00A651" stroke="#000000" stroke-miterlimit="10" points="177.982,98.533 123.982,192.062 231.982,192.062 
	177.982,98.532 "/>
<polygon fill="#FFF200" stroke="#000000" stroke-miterlimit="10" points="123.982,192.06 69.982,98.531 177.982,98.531 
	123.982,192.062 "/>
<polygon fill="#00AEEF" stroke="#000000" stroke-miterlimit="10" points="69.982,98.533 15.982,192.062 123.982,192.062 
	69.982,98.532 "/>
<polygon fill="#FFFFFF" stroke="#000000" stroke-miterlimit="10" points="447.984,192.062 15.984,192.062 231.984,566.185 
	447.985,192.061 "/>
<polygon fill="#ED1C24" stroke="#000000" stroke-miterlimit="10" points="447.984,192.062 231.985,192.061 339.985,379.122 
	447.985,192.061 "/>
<polygon fill="#00A651" stroke="#000000" stroke-miterlimit="10" points="339.982,379.124 123.984,379.122 231.984,566.185 
	339.984,379.123 "/>
<polygon fill="#FFF200" stroke="#000000" stroke-miterlimit="10" points="123.987,379.12 231.985,192.06 339.985,379.122 
	123.984,379.122 "/>
<polygon fill="#00AEEF" stroke="#000000" stroke-miterlimit="10" points="231.982,192.062 15.984,192.062 123.984,379.122 
	231.984,192.062 "/>
<polygon fill="#FFFFFF" stroke="#000000" stroke-miterlimit="10" points="123.982,5.001 177.982,98.531 231.982,5 123.982,5 "/>
<polygon fill="#ED1C24" stroke="#000000" stroke-miterlimit="10" points="123.982,5.001 150.982,51.766 177.982,5 123.982,5 "/>
<polygon fill="#00A651" stroke="#000000" stroke-miterlimit="10" points="177.983,5.001 204.982,51.766 231.982,5 177.982,5 "/>
<polygon fill="#FFF200" stroke="#000000" stroke-miterlimit="10" points="204.98,51.767 150.982,51.766 177.982,5 204.982,51.767 
	"/>
<polygon fill="#00AEEF" stroke="#000000" stroke-miterlimit="10" points="150.983,51.767 177.982,98.531 204.982,51.766 
	150.982,51.766 "/>
<polygon fill="#FFFFFF" stroke="#000000" stroke-miterlimit="10" points="204.982,51.766 258.982,51.766 231.982,5 204.982,51.766 
	"/>
<polygon fill="#ED1C24" stroke="#000000" stroke-miterlimit="10" points="204.982,51.766 231.982,51.766 218.482,28.383 
	204.982,51.766 "/>
<polygon fill="#00A651" stroke="#000000" stroke-miterlimit="10" points="218.482,28.383 245.482,28.383 231.982,5 218.482,28.383 
	"/>
<polygon fill="#FFF200" stroke="#000000" stroke-miterlimit="10" points="245.482,28.384 231.982,51.766 218.482,28.383 
	245.482,28.383 "/>
<polygon fill="#00AEEF" stroke="#000000" stroke-miterlimit="10" points="231.982,51.766 258.982,51.766 245.482,28.383 
	231.982,51.766 "/>
<polygon fill="#FFFFFF" stroke="#000000" stroke-miterlimit="10" points="245.482,75.149 258.982,51.766 231.982,51.766 
	245.482,75.149 "/>
<polygon fill="#ED1C24" stroke="#000000" stroke-miterlimit="10" points="245.482,75.149 252.232,63.458 238.732,63.458 
	245.482,75.149 "/>
<polygon fill="#00A651" stroke="#000000" stroke-miterlimit="10" points="238.732,63.457 245.482,51.766 231.982,51.766 
	238.732,63.458 "/>
<polygon fill="#FFF200" stroke="#000000" stroke-miterlimit="10" points="245.482,51.766 252.232,63.458 238.732,63.458 
	245.482,51.766 "/>
<polygon fill="#00AEEF" stroke="#000000" stroke-miterlimit="10" points="252.232,63.457 258.982,51.766 245.482,51.766 
	252.232,63.458 "/>
<polygon fill="#FFFFFF" stroke="#000000" stroke-miterlimit="10" points="245.482,75.149 238.732,63.458 231.982,75.148 
	245.482,75.149 "/>
<polygon fill="#ED1C24" stroke="#000000" stroke-miterlimit="10" points="245.482,75.149 242.107,69.303 238.732,75.149 
	245.482,75.149 "/>
<polygon fill="#00A651" stroke="#000000" stroke-miterlimit="10" points="238.732,75.148 235.357,69.303 231.982,75.148 
	238.732,75.149 "/>
<polygon fill="#FFF200" stroke="#000000" stroke-miterlimit="10" points="235.357,69.303 242.107,69.303 238.732,75.149 
	235.357,69.303 "/>
<polygon fill="#00AEEF" stroke="#000000" stroke-miterlimit="10" points="242.107,69.303 238.732,63.458 235.357,69.303 
	242.107,69.303 "/>
<polygon fill="#FFFFFF" stroke="#000000" stroke-miterlimit="10" points="235.357,69.303 228.607,69.303 231.982,75.148 
	235.357,69.303 "/>
<polygon fill="#ED1C24" stroke="#000000" stroke-miterlimit="10" points="235.357,69.303 231.982,69.303 233.67,72.226 
	235.357,69.303 "/>
<polygon fill="#00A651" stroke="#000000" stroke-miterlimit="10" points="233.67,72.226 230.295,72.226 231.982,75.148 
	233.67,72.226 "/>
<polygon fill="#FFF200" stroke="#000000" stroke-miterlimit="10" points="230.295,72.226 231.982,69.303 233.67,72.226 
	230.295,72.226 "/>
<polygon fill="#00AEEF" stroke="#000000" stroke-miterlimit="10" points="231.982,69.303 228.607,69.303 230.295,72.226 
	231.982,69.303 "/>
</svg>
